HIERARCHY
ROOT Hips
{
	OFFSET 0.00 0.00 0.00
	CHANNELS 6 Xposition Yposition Zposition Xrotation Yrotation Zrotation
	JOINT Spine
	{
		OFFSET 0.00000 3.24121 0.00000
		CHANNELS 3 Xrotation Yrotation Zrotation
		JOINT Head
		{
			OFFSET 0.00000 18.38296 0.00000
			CHANNELS 3 Xrotation Yrotation Zrotation
			End Site
			{
				OFFSET 0.00000 4.52755 0.00000
			}
		}
		JOINT LeftShoulder
		{
			OFFSET 0.00000 12.82826 0.00000
			CHANNELS 3 Xrotation Yrotation Zrotation
			JOINT LeftArm
			{
				OFFSET 7.74805 0.00000 0.00000
				CHANNELS 3 Xrotation Yrotation Zrotation
				JOINT LeftForeArm
				{
					OFFSET 10.63561 0.00000 0.00000
					CHANNELS 3 Yrotation Zrotation Xrotation
					JOINT LeftHand
					{
						OFFSET 8.34675 0.00000 0.00000
						CHANNELS 3 Xrotation Yrotation Zrotation
						JOINT LeftHandThumb1
						{
							OFFSET 0.00000 0.00000 0.00000
							CHANNELS 3 Xrotation Zrotation Yrotation
							End Site
							{
								OFFSET 0.00000 0.00000 3.93700
							}
						}
						End Site
						{
							OFFSET 3.93700 0.00000 0.00000
						}
					}
				}
			}
		}
		JOINT RightShoulder
		{
			OFFSET 0.00000 12.82826 0.00000
			CHANNELS 3 Xrotation Yrotation Zrotation
			JOINT RightArm
			{
				OFFSET -7.74805 0.00000 0.00000
				CHANNELS 3 Xrotation Yrotation Zrotation
				JOINT RightForeArm
				{
					OFFSET -10.63561 0.00000 0.00000
					CHANNELS 3 Yrotation Zrotation Xrotation
					JOINT RightHand
					{
						OFFSET -8.34675 0.00000 0.00000
						CHANNELS 3 Xrotation Yrotation Zrotation
						JOINT RightHandThumb1
						{
							OFFSET 0.00000 0.00000 0.00000
							CHANNELS 3 Xrotation Zrotation Yrotation
							End Site
							{
								OFFSET 0.00000 0.00000 3.93700
							}
						}
						End Site
						{
							OFFSET -3.93700 0.00000 0.00000
						}
					}
				}
			}
		}
	}
	JOINT LeftUpLeg
	{
		OFFSET 3.43402 0.00000 0.00000
		CHANNELS 3 Xrotation Yrotation Zrotation
		JOINT LeftLeg
		{
			OFFSET 0.00000 -15.71302 0.00000
			CHANNELS 3 Xrotation Yrotation Zrotation
			JOINT LeftFoot
			{
				OFFSET 0.00000 -14.43512 0.00000
				CHANNELS 3 Xrotation Yrotation Zrotation
				JOINT LeftToeBase
				{
					OFFSET 0.00000 -1.27828 4.77061
					CHANNELS 3 Xrotation Yrotation Zrotation
					End Site
					{
						OFFSET 0.00000 0.00000 2.95275
					}
				}
			}
		}
	}
	JOINT RightUpLeg
	{
		OFFSET -3.43402 0.00000 0.00000
		CHANNELS 3 Xrotation Yrotation Zrotation
		JOINT RightLeg
		{
			OFFSET 0.00000 -15.71302 0.00000
			CHANNELS 3 Xrotation Yrotation Zrotation
			JOINT RightFoot
			{
				OFFSET 0.00000 -14.43512 0.00000
				CHANNELS 3 Xrotation Yrotation Zrotation
				JOINT RightToeBase
				{
					OFFSET 0.00000 -1.27828 4.77061
					CHANNELS 3 Xrotation Yrotation Zrotation
					End Site
					{
						OFFSET 0.00000 0.00000 2.95275
					}
				}
			}
		}
	}
}
MOTION
Frames: 9
Frame Time: 0.008333
 -0.3755 32.6638 -4.1455 43.7350 -2.6098 2.1187 -48.7770 5.3199 1.0491 7.2170 -9.1852 -0.7662 45.4826 15.8217 10.4016 -59.5814 -37.8865 -100.0749 -8.2067 -0.0000 -3.3623 1.6468 15.6799 -6.0721 33.1476 -0.0000 26.2537 46.2889 -10.0309 -17.1165 -57.8344 -6.7208 107.7855 65.3356 0.0000 -58.3558 1.9229 20.1454 -5.5678 32.8623 0.0000 -24.3270 -39.0231 6.7644 2.3532 0.8970 -0.0000 -0.0000 -4.1245 4.2775 -1.0558 2.4316 0.0000 -0.0000 -39.4373 -9.9294 -0.3935 -2.1537 0.0000 0.0000 -3.1349 -8.6095 17.7263 17.7016 -0.0000 -0.0000
 -0.3788 32.6623 -4.1418 43.8055 -2.6108 2.1212 -48.8519 5.3310 1.0497 7.0417 -9.2103 -0.8004 45.6216 15.9030 10.2397 -59.6880 -38.9501 -99.9681 -8.8253 -0.0000 -4.3952 1.5495 15.9338 -5.6273 33.1476 -0.0000 26.2537 46.5373 -10.0564 -17.0252 -58.0521 -6.2092 107.8934 65.1121 0.0000 -58.2254 2.0010 20.3635 -5.7334 32.8623 0.0000 -24.3270 -39.1186 6.7650 2.3643 0.9621 0.0000 0.0000 -4.1726 4.2854 -1.0528 2.4533 -0.0000 0.0000 -39.5200 -9.8856 -0.3863 -2.1087 0.0000 -0.0000 -3.1854 -8.6543 17.6978 17.6997 -0.0000 -0.0000
 -0.3831 32.6610 -4.1388 43.8666 -2.6256 2.1285 -48.9122 5.3442 1.0452 6.8743 -9.2042 -0.8083 45.7646 15.9719 10.1110 -59.7950 -39.5337 -99.8793 -9.2378 -0.0000 -5.0036 1.4827 16.0136 -5.3603 33.1476 -0.0000 26.2537 46.7095 -10.0514 -16.9276 -58.2974 -5.5536 107.9758 64.7841 0.0000 -58.2346 2.0631 20.6228 -5.8398 32.8623 0.0000 -24.3270 -39.1962 6.7385 2.3850 1.0127 -0.0000 0.0000 -4.2142 4.3086 -1.0572 2.4677 0.0000 -0.0000 -39.6001 -9.8419 -0.3757 -2.0540 -0.0000 -0.0000 -3.2307 -8.7072 17.7218 17.7492 0.0000 -0.0000
 -0.3868 32.6598 -4.1363 43.9119 -2.6527 2.1492 -48.9562 5.3551 1.0312 6.7318 -9.1914 -0.8041 45.8917 16.0439 10.0640 -59.7380 -38.7873 -99.8372 -9.4089 -0.0000 -4.2876 1.4419 15.8928 -5.2518 33.1476 -0.0000 26.2537 46.8414 -10.0193 -16.8498 -58.5713 -4.9296 108.0427 64.2993 0.0000 -57.9923 1.9789 20.4467 -5.6487 32.8623 0.0000 -24.3270 -39.2593 6.7608 2.4027 1.0736 0.0000 0.0000 -4.2508 4.2759 -0.9908 2.4019 0.0000 0.0000 -39.6651 -9.7641 -0.3670 -2.0022 0.0000 0.0000 -3.2673 -8.7403 17.6647 17.6921 -0.0000 -0.0000
 -0.3908 32.6592 -4.1342 43.9501 -2.7020 2.1877 -48.9966 5.3928 1.0167 6.6137 -9.1386 -0.7920 45.9649 16.0917 10.0240 -59.6796 -38.4218 -99.7904 -9.6031 -0.0000 -3.9259 1.4111 15.8432 -5.1557 33.1476 -0.0000 26.2537 46.9203 -9.9714 -16.7763 -58.9402 -4.1762 108.0823 63.6166 0.0000 -57.7035 2.1489 20.1575 -6.2144 32.8623 0.0000 -24.3270 -39.3045 6.7689 2.4155 1.1186 0.0000 0.0000 -4.2821 4.3196 -0.9818 2.3980 -0.0000 -0.0000 -39.7241 -9.6854 -0.3573 -1.9594 -0.0000 -0.0000 -3.2850 -8.7572 17.6379 17.6995 -0.0000 0.0000
 -0.3941 32.6584 -4.1324 43.9865 -2.7655 2.2345 -49.0358 5.4596 1.0141 6.5188 -9.1284 -0.7932 46.0443 16.1323 9.9849 -59.6727 -38.2202 -99.7531 -9.7827 -0.0000 -3.7105 1.3912 15.8026 -5.0961 33.1476 -0.0000 26.2537 47.0035 -9.9409 -16.7365 -59.2631 -3.4565 108.1600 63.0638 0.0000 -57.4663 1.9394 19.9277 -5.6737 32.8623 0.0000 -24.3270 -39.3457 6.7932 2.4288 1.1615 -0.0000 0.0000 -4.3155 4.3628 -0.9742 2.3868 0.0000 0.0000 -39.7837 -9.6199 -0.3502 -1.9127 0.0000 0.0000 -3.3207 -8.7677 17.6590 17.7428 -0.0000 0.0000
 -0.3978 32.6577 -4.1313 44.0208 -2.8373 2.2891 -49.0697 5.5264 1.0071 6.4409 -9.0986 -0.7909 46.1162 16.1760 9.9458 -59.6601 -38.0522 -99.7176 -9.9726 -0.0000 -3.5134 1.3851 15.7320 -5.0960 33.1476 -0.0000 26.2537 47.0330 -9.8871 -16.7328 -59.5609 -2.8562 108.2329 62.6047 0.0000 -57.2809 1.7623 19.1813 -5.3497 32.8623 0.0000 -24.3270 -39.3800 6.7804 2.4395 1.2019 0.0000 -0.0000 -4.3576 4.4750 -0.9542 2.3923 0.0000 -0.0000 -39.8326 -9.5721 -0.3348 -1.8909 0.0000 0.0000 -3.3276 -8.7216 17.6244 17.7311 0.0000 0.0000
 -0.4007 32.6576 -4.1297 44.0440 -2.9110 2.3497 -49.0972 5.6065 1.0019 6.3907 -9.0800 -0.8018 46.1689 16.1975 9.9145 -59.6277 -37.8793 -99.6781 -10.1372 -0.0000 -3.3370 1.3649 15.7447 -5.0179 33.1476 -0.0000 26.2537 47.0203 -9.8244 -16.7706 -59.9119 -2.0987 108.3198 62.0162 0.0000 -57.4134 1.6832 19.4150 -5.0518 32.8623 0.0000 -24.3270 -39.3974 6.7878 2.4393 1.2260 -0.0000 -0.0000 -4.3911 4.6024 -0.9897 2.4359 0.0000 -0.0000 -39.8710 -9.5405 -0.3269 -1.8681 -0.0000 0.0000 -3.3269 -8.6772 17.6336 17.7258 0.0000 -0.0000
 -0.4033 32.6575 -4.1287 44.0663 -2.9923 2.4207 -49.1208 5.7168 0.9986 6.3523 -9.0656 -0.8198 46.1831 16.2102 9.8934 -59.5936 -37.7338 -99.6483 -10.2602 -0.0000 -3.1783 1.3486 15.7194 -4.9661 33.1476 -0.0000 26.2537 46.9791 -9.7609 -16.8296 -60.2019 -1.4397 108.4446 61.4772 0.0000 -57.1922 1.7514 19.8524 -5.1449 32.8623 0.0000 -24.3270 -39.4082 6.8002 2.4448 1.2522 -0.0000 0.0000 -4.4080 4.6533 -0.9077 2.4041 0.0000 0.0000 -39.9069 -9.5035 -0.3240 -1.8544 0.0000 -0.0000 -3.3281 -8.6356 17.6759 17.7651 0.0000 -0.0000
